<svg xmlns="http://www.w3.org/2000/svg" viewBox="0 0 541.13 293.86"><defs><style>.cls-1{fill:#bd1e1a;}.cls-2{fill:#343433;}.cls-3{fill:none;}</style></defs><g id="Layer_2" data-name="Layer 2"><g id="Layer_1-2" data-name="Layer 1"><path class="cls-1" d="M64,128h12c24.27,0,26.27-2.5,26.27-15.26,0-15.51-.75-20.76-26.27-20.76-18.26,0-26.52.25-26.52,21.76v3.75H2V111C2,57.48,30.27,53,78.3,53c30.27,0,71.55,2.5,71.55,50.53,0,21-5.75,39.28-28.77,42.28v2c24,1,31,18.52,31,40.28,0,48.53-31.52,55.54-73.8,55.54-43.53,0-78.3-3.75-78.3-57.29v-10H47.53v6.26c0,21,11,22,28.52,22,20.52,0,28.52-1,28.52-22.76,0-12.76-2.25-17.51-28.52-17.51H64Z"/><path class="cls-2" d="M460.71,53q51,0,65.74,17t14.68,75.83q0,64.37-14.75,81.11t-71.44,16.74q-51,0-66-16.54t-15-72.81q0-67,14.68-84.12T460.71,53ZM458,83.45q-35.82,0-41.86,9.19t-6,63.68q0,40.35,7.07,48.59t41.66,8.23q33.06,0,39.66-9.26t6.59-56.2q0-47.07-6.25-55.65T458,83.45Z"/><path class="cls-1" d="M333.44,61c-51.71-1.8-103.43-2.89-155.16-4.23,0,1.45-.06,4.39-.08,5.84l161.08,4.6C337.35,65.1,335.38,63,333.44,61Z"/><path class="cls-1" d="M340.88,68.43,178.05,73.84c0,1.56.17,4.66.23,6.22L344,75.27C343,73,341.92,70.7,340.88,68.43Z"/><path class="cls-1" d="M347.09,86.14,178.37,81.27c-.07,2.28-.15,4.56-.22,6.85L348,92.64C347.66,90.47,347.38,88.31,347.09,86.14Z"/><path class="cls-2" d="M9.49,280.55v-4.4l1,0q4.77,0,5.8-.57c.69-.38,1-1.45,1-3.22,0-2-.31-3.18-.93-3.63s-2.25-.69-4.91-.69c-2.4,0-3.92.25-4.54.75S6,270.55,6,272.5v.88H.5v-1.12q0-5.22,2.21-7t8.72-1.76c4.37,0,7.38.55,9,1.66s2.45,3.16,2.45,6.14c0,4.13-1.66,6.44-5,6.95v.16q5.4.58,5.4,6.51,0,5.26-2.38,7.08c-1.59,1.21-4.68,1.82-9.29,1.82s-7.59-.61-9.21-1.82S0,288.53,0,285.16l0-1.66H5.55c0,.66.07,1.05.07,1.18,0,2.06.34,3.34,1,3.85s2.43.76,5.21.76c2.55,0,4.16-.27,4.84-.83s1-1.88,1-4c0-1.6-.31-2.66-.93-3.17s-1.91-.76-3.86-.76H9.49Z"/><path class="cls-2" d="M33.11,293.6V263.76H47.78q6.26,0,8.75,2.73T59,276.07q0,11.16-2,14.35T48,293.6Zm5.66-4.77h8.07q4.06,0,5.26-1.87t1.19-8.25q0-6.6-1.07-8.39c-.72-1.2-2.39-1.79-5-1.79H38.77Z"/><path class="cls-2" d="M89,268.53v8h13.37v4.76H89V293.6H83.31V263.76h19.76v4.77Z"/><path class="cls-2" d="M116.67,263.76V293.6H111V263.76Z"/><path class="cls-2" d="M132.1,263.76v24.77h14v5.07H126.43V263.76Z"/><path class="cls-2" d="M171.48,287.87H158.61l-1.86,5.73h-6l9.92-29.84h8.51l10.07,29.84h-5.88Zm-1.31-4.17L165,268.15l-5.07,15.55Z"/><path class="cls-2" d="M221.21,263.76V293.6h-5.67V277.34c0-1.3,0-2.77.11-4.42l.11-2.23.11-2.21h-.17l-.68,2.08-.66,2.08c-.61,1.86-1.08,3.24-1.42,4.13l-6.55,16.83h-5.16l-6.63-16.7c-.36-.92-.84-2.3-1.44-4.13l-.68-2.08-.67-2.06h-.18l.11,2.17.11,2.19c.09,1.69.13,3.14.13,4.35V293.6h-5.66V263.76h9.22l5.34,13.82c.36,1,.84,2.33,1.44,4.13l.66,2.07.67,2.06h.2l.63-2.06.66-2c.54-1.73,1-3.11,1.4-4.11l5.24-13.86Z"/><path class="cls-2" d="M236,268.53v7.69h14v4.18H236v8.43h14.89v4.77H230.34V263.76h20.42v4.77Z"/><path class="cls-2" d="M287.28,263.76V293.6h-9.6l-8.52-16.37q-.65-1.23-2-4.29l-1-2.14-.95-2.14h-.21l.08,2,.07,1.95,0,3.91V293.6h-5.66V263.76h9.6l7.76,15.13c.68,1.34,1.48,3,2.38,4.87l1.14,2.43,1.13,2.45h.2l-.07-1.93-.06-1.92,0-3.85V263.76Z"/><path class="cls-2" d="M308.89,268.83V293.6h-5.66V268.83h-8.61v-5.07h23.19v5.07Z"/><path class="cls-2" d="M360.43,279.22h4.85v1l0,2.6a16.27,16.27,0,0,1-.55,4l4.28,3.63-2.69,3.25-3.58-3q-2,3.21-9.18,3.21-8,0-10.48-1.84c-1.66-1.22-2.48-3.81-2.48-7.78q0-6.71,5.68-7.54a6.86,6.86,0,0,1-2.45-5.38c0-2.75.68-4.65,2-5.7s3.79-1.57,7.31-1.57c3.71,0,6.23.53,7.58,1.6s2,3.09,2,6.05l0,1.55h-5v-.88c0-1.79-.24-2.91-.73-3.37s-1.68-.69-3.57-.69q-4.2,0-4.2,3.12a5.26,5.26,0,0,0,2.19,4l9.07,7.78a11.66,11.66,0,0,0,.22-2.12A9.52,9.52,0,0,0,360.43,279.22Zm-11.2.1c-2.2.33-3.3,2-3.3,4.94,0,2.31.38,3.77,1.12,4.4s2.48.94,5.2.94a19.91,19.91,0,0,0,4.56-.32A5,5,0,0,0,359,287.5Z"/><path class="cls-2" d="M392,293.6V263.76h13.5q6.06,0,8.17,2.11c1.4,1.41,2.11,4.12,2.11,8.14s-.67,6.65-2,8-4.05,2-8.13,2l-1.32,0h-6.66v9.64Zm5.66-14.41h6.44c2.57,0,4.2-.29,4.89-.88s1-2,1-4.19c0-2.52-.29-4.08-.86-4.69s-2.08-.9-4.5-.9h-7Z"/><path class="cls-2" d="M442,287.87H429.07l-1.86,5.73h-6l9.92-29.84h8.5l10.08,29.84h-5.88Zm-1.31-4.17-5.16-15.55-5.07,15.55Z"/><path class="cls-2" d="M456.79,293.6V263.76H471.5c3.65,0,6.18.63,7.56,1.9s2.08,3.57,2.08,6.89c0,3-.35,5.08-1,6.18s-2.11,1.88-4.25,2.3v.2c3.3.2,5,2.13,5,5.79v6.58h-5.66v-5.44q0-4.62-4.55-4.62h-8.15V293.6Zm5.66-14.82h8.13c1.94,0,3.22-.35,3.86-1s.95-2.08.95-4.16-.28-3.5-.82-4.12-1.75-.93-3.6-.93h-8.52Z"/><path class="cls-2" d="M502,268.83V293.6h-5.66V268.83h-8.62v-5.07h23.2v5.07Z"/><path class="cls-2" d="M540.41,272.46h-5.53a6,6,0,0,1,0-.61c-.14-1.68-.51-2.73-1.12-3.16s-2.05-.65-4.33-.65q-4,0-5.25.75c-.83.49-1.24,1.54-1.24,3.12,0,1.88.34,3,1,3.39s2.88.67,6.64.88q6.68.38,8.62,1.9t2,6.36q0,5.94-2.29,7.68t-10.13,1.74q-7,0-9.34-1.7t-2.31-6.91l0-1.09h5.51l0,.63c0,2.08.37,3.36,1.1,3.82s2.71.7,6,.7c2.54,0,4.16-.27,4.86-.8s1-1.79,1-3.74a3.89,3.89,0,0,0-.79-2.88c-.53-.47-1.68-.76-3.45-.86l-3.12-.2c-4.72-.27-7.74-.93-9-2s-2-3.26-2-6.67.79-5.81,2.37-7,4.74-1.74,9.48-1.74q6.74,0,9.07,1.59c1.56,1.07,2.34,3.14,2.34,6.23Z"/><path class="cls-1" d="M288.93,98.36C296.53,101.74,300,109.53,300,126v40.21c0,20.24-6.91,32.79-25.87,32.79H229.34V98.35H178.11V243.61H282.37c53.53,0,70.44-24.85,70.44-77.36V126a127.73,127.73,0,0,0-2.68-27.68Z"/><path class="cls-3" d="M2,15.68c.71-2.2,1.51-4.8,2.31-7.46Q3.2,12,2,15.68Z"/><path class="cls-3" d="M4.48,7.68C5.26,5.07,6,2.43,6.7,0h0C6,2.6,5.23,5.14,4.48,7.68Z"/><path d="M44.3,0h0Z"/><path class="cls-1" d="M6.7,0V0H29.58V0Z"/><path class="cls-1" d="M29.58,0H6.71V0Z"/><path class="cls-1" d="M4.48,7.68c-.06.18-.11.36-.17.54C4.37,8,4.42,7.86,4.48,7.68Z"/><polygon class="cls-1" points="6.7 0.04 29.58 0.04 29.58 0.04 6.7 0.04 6.7 0.04"/><path class="cls-1" d="M6.7,0,1.55,17.13H307.79c.44,3.51.93,8.3,1.58,11.28,1.06,2.81,4,4.19,6,6.34a6.7,6.7,0,0,1-4.21,6.88c-5.45,2.12-11.42.93-17.11,1L177.9,49.12q.15,3.09.35,6.16c43.89-2.91,87.73-6.1,131.6-9.16,6.14-.09,8.61-6.21,9.46-11.36,2.25-2,5.09-3.64,6.54-6.39,1-2.93.69-7.75.63-11.24H541.13V0Z"/></g></g></svg>